Simulation
nRows=46
nColumns=15
endheader
time  TH_x TH_y TH_z SC_y  SC_z  SC_x  AC_y  AC_z  AC_x  GH_y  GH_z  GH_yy  EL_x  PS_y
1.6000000000000014  0.000000  0.000000  0.000000  -47.39893258877493  15.26509522380955  45.0312932777232  55.016574840683774  -3.4453969051851963  4.442063690858204  71.76033372522679  64.28208139689303  -77.73828346966054  18.229807371363613  120.000000
1.6320000000000014  0.000000  0.000000  0.000000  -47.446576583632066  15.297821831668653  46.78458251282478  54.94789615152832  -4.815999526347795  3.5304333449615273  71.82168147878569  63.94672862500286  -77.67967782925452  18.249326197560055  120.000000
1.6640000000000015  0.000000  0.000000  0.000000  -47.43105006206613  15.261928796000264  48.1490043053652  54.92392170036266  -6.035867151011812  2.6682021109385667  71.9510053834074  63.46235471774111  -77.51107226822934  18.27791027287718  120.000000
1.6960000000000015  0.000000  0.000000  0.000000  -47.35288346898008  15.154811792978395  49.12889601812052  54.94452921732802  -7.106610687417923  1.8512879386912815  72.14514740337579  62.838248699536486  -77.25066399828829  18.31495059013169  120.000000
1.7280000000000015  0.000000  0.000000  0.000000  -47.21124294196692  14.975689684290076  49.73879656173167  55.006772756617046  -8.037222128561819  1.0762325431058475  72.38905344729382  62.08253432716032  -76.92214670591777  18.359020832577187  120.000000
1.7600000000000016  0.000000  0.000000  0.000000  -47.004008840932585  14.724899781152676  50.00000052131481  55.10583897115602  -8.841717040851266  0.34138519479108487  72.6563225398157  61.20308041597041  -76.55149125249659  18.407670174338943  120.000000
1.7920000000000016  0.000000  0.000000  0.000000  -46.72802779807761  14.404461181759524  49.932343486442306  55.235823032976946  -9.534674949194905  -0.3515233534538505  72.91137251997695  60.20935068324016  -76.16159447797631  18.45803915901689  120.000000
1.8240000000000016  0.000000  0.000000  0.000000  -46.38011394956777  14.01806860181546  49.54691916375677  55.38886804306639  -10.127461325822695  -0.9953695495429457  73.11427711810857  59.11313978379506  -75.7654798736869  18.507419816966507  120.000000
1.8560000000000016  0.000000  0.000000  0.000000  -45.960014117736314  13.571915076093672  48.85212894633677  55.55466444439364  -10.626024811339096  -1.5795261965544403  73.2271943316257  57.925278717167075  -75.36074031309161  18.551990472016374  120.000000
1.8880000000000017  0.000000  0.000000  0.000000  -45.47222968555196  13.072797332357998  47.86055084504777  55.718718641576885  -11.029257445069197  -2.091109528516297  73.22269593092884  56.651825463412095  -74.92560535005083  18.586670667223977  120.000000
1.9200000000000017  0.000000  0.000000  0.000000  -44.92583404718178  12.529617639195637  46.591270624575024  55.86649207292506  -11.32588833863831  -2.5152247613745784  73.09003567638321  55.296573420578866  -74.4206779138696  18.606099349896706  120.000000
1.9520000000000017  0.000000  0.000000  0.000000  -44.33503516090372  11.954058827637821  45.06997847555367  55.98657750367893  -11.493752196416777  -2.835850396823622  72.83588867111146  53.864357721450936  -73.7972245204595  18.605885846892747  120.000000
1.9840000000000018  0.000000  0.000000  0.000000  -43.71798192004647  11.357270840017678  43.32520799045368  56.06972908001812  -11.501830224081248  -3.0413116400468194  72.4776074826384  52.36101271421571  -73.00888464334544  18.58552014147423  120.000000
2.016000000000002  0.000000  0.000000  0.000000  -43.095333036960604  10.749710906284115  41.38365810553444  56.110139772438394  -11.317323155434764  -3.127783490749375  72.0357669590711  50.795072606519085  -72.02310233873267  18.550050488201972  120.000000
2.048000000000002  0.000000  0.000000  0.000000  -42.48760995662063  10.141310206803075  39.26807334870215  56.10471305377283  -10.91463221551592  -3.0975852203214185  71.52957073389148  49.17849025858704  -70.82824575925365  18.510946940286445  120.000000
2.080000000000002  0.000000  0.000000  0.000000  -41.909936048999754  9.540785066919586  36.99656742084192  56.051375347169675  -10.28442034035156  -2.95622026226977  70.97491517475548  47.52548849755155  -69.4347082607983  18.48584850114938  120.000000
2.112000000000002  0.000000  0.000000  0.000000  -41.36861926385094  8.954119807404494  34.58504639381317  55.94997519412965  -9.438234825904345  -2.7117983810954946  70.38484690454372  45.84941841016115  -67.86968779449113  18.496039595656026  120.000000
2.144000000000002  0.000000  0.000000  0.000000  -40.86202882005815  8.385547462862293  32.05261486980641  55.79861132684999  -8.405823121206684  -2.3754350551360286  69.76692915780868  44.15801103835002  -66.16875989812345  18.56033591646454  120.000000
2.176000000000002  0.000000  0.000000  0.000000  -40.38436684465939  7.838591085420914  29.426354485216955  55.59315909003746  -7.227785591461554  -1.96134352977546  69.1196215812316  42.4525691560812  -64.36735655004492  18.69143172527298  120.000000
2.208000000000002  0.000000  0.000000  0.000000  -39.92836435225282  7.316010300884635  26.742190123035744  55.33054775878149  -5.949576043582867  -1.4859929297644565  68.43216911812222  40.73107152152284  -62.49280718184353  18.895391756392314  120.000000
2.240000000000002  0.000000  0.000000  0.000000  -39.488139744655605  6.819314802484162  24.042147884061986  55.01090086798779  -4.617947517704779  -0.9668716935940339  67.68534429120592  38.99125532219747  -60.55987960207964  19.170772918424927  120.000000
2.272000000000002  0.000000  0.000000  0.000000  -39.06041407707324  6.348598526256814  21.369985545450465  54.63807114786312  -3.278927535982876  -0.42116616574282356  66.85475465027358  37.23280006565369  -58.56878657241675  19.50978095160049  120.000000
2.304000000000002  0.000000  0.000000  0.000000  -38.643879336838275  5.901905611462829  18.766537819940094  54.221920997208485  -1.9767421371666607  0.13531340512303494  65.91473372043305  35.45976849373855  -56.50695802947954  19.900896711770205  120.000000
2.336000000000002  0.000000  0.000000  0.000000  -38.23888397628241  5.475356193484518  16.26742346004462  53.77598720061153  -0.7509035074105699  0.6883187550432108  64.84118114438073  33.679972620995535  -54.35267261117143  20.331131993521485  120.000000
2.368000000000002  0.000000  0.000000  0.000000  -37.84813307467578  5.0655527765019635  13.903233082922391  53.314278744096924  0.3683965898132457  1.2234231798810413  63.61207143329659  31.903188321555685  -52.08039476953834  20.7872919766123  120.000000
2.400000000000002  0.000000  0.000000  0.000000  -37.47753532173772  4.67022341684151  11.700359068291265  52.84806678486845  1.3623601955192945  1.725619905110811  62.208957431517334  30.140003488942465  -49.666000967529456  21.25663179913537  120.000000
2.432000000000002  0.000000  0.000000  0.000000  -37.135496313314846  4.288821678533865  9.681100853536575  52.38494125941158  2.2236695005505354  2.1790403137456615  60.61930561728587  28.40064220722725  -47.091155758392624  21.727099890053253  120.000000
2.464000000000002  0.000000  0.000000  0.000000  -36.83265545562473  3.9232116907344263  7.862461493490125  51.92806194862415  2.953891698371397  2.5669783908804966  58.83819685422741  26.694827485344124  -44.34734120919998  22.186800309440297  120.000000
2.496000000000002  0.000000  0.000000  0.000000  -36.57828068005912  3.575766487224613  6.255522835480897  51.47821119305815  3.559988643200099  2.874148500537963  56.87096798891787  25.03234903627424  -41.437764427450624  22.623895703159867  120.000000
2.5280000000000022  0.000000  0.000000  0.000000  -36.37813005784328  3.2485873050013883  4.864971368210176  51.03639694855695  4.049057061441543  3.092034970303726  54.735799275197316  23.424963607704733  -38.37772446416259  23.026798497727693  120.000000
2.5600000000000023  0.000000  0.000000  0.000000  -36.23460761760735  2.9437386720994914  3.6879683217247945  50.605247053146186  4.427546137355573  3.2175915128486587  52.461395803282635  21.886142906291436  -35.194672060053726  23.383587191720625  120.000000
2.5920000000000023  0.000000  0.000000  0.000000  -36.147955417264285  2.6630503528242953  2.7151436171411283  50.18691098516509  4.701414663711525  3.252460717558494  50.083769792198176  20.42838817257384  -31.925591667180484  23.680894708206807  120.000000
2.6240000000000023  0.000000  0.000000  0.000000  -36.117454471319924  2.407604564096176  1.932515507044443  49.78292148819439  4.876497486234759  3.2036130270765724  47.64306502390398  19.061982009382266  -28.61248648665592  23.90504818586397  120.000000
2.6560000000000024  0.000000  0.000000  0.000000  -36.141314012327605  2.1782409798897953  1.3234837085718831  49.39451028908087  4.960378007227072  3.081605111909799  45.18006152075224  17.79357135474222  -25.297078737162398  24.044195542442356  120.000000
2.6880000000000024  0.000000  0.000000  0.000000  -36.21628985568288  1.9769791947122037  0.8697296754270262  49.02311163168529  4.963282539830262  2.8990088916872585  42.73215223350281  16.62540891304786  -22.017050742223326  24.090503550673144  120.000000
2.7200000000000024  0.000000  0.000000  0.000000  -36.33662194115432  1.8072991820840085  0.5520159901194132  48.66966404481706  4.898534758904636  2.6693065518607524  40.329788580469966  15.554940172129749  -18.8041251801446  24.041524058331728  120.000000
2.7520000000000024  0.000000  0.000000  0.000000  -36.493566087649484  1.6727435177697412  0.34990003535289427  48.335236559261794  4.781686364255583  2.4058983365145554  37.99362075133675  14.576118301617013  -15.68463391715322  23.900056101122182  120.000000
2.7840000000000025  0.000000  0.000000  0.000000  -36.674306913332266  1.575852461514297  0.24255072842042744  48.02166576684095  4.628143790675339  2.121523627896  35.733695180304636  13.68072502564591  -12.681287406834233  23.672144264602466  120.000000
2.8160000000000025  0.000000  0.000000  0.000000  -36.86521814606948  1.516556516464723  0.2107906432659989  47.730989478618625  4.450352082538592  1.8294950907744345  33.55077330873561  12.860140853952934  -9.814527078033667  23.365145508503453  120.000000
2.8480000000000025  0.000000  0.000000  0.000000  -37.05347736861361  1.4914397198276732  0.23736405018369053  47.466870291173805  4.257713790740798  1.5434822593038504  31.43873275336524  12.107071520030368  -7.1033044472172655  22.986139759299213  120.000000
2.8800000000000026  0.000000  0.000000  0.000000  -37.22991678455566  1.4943734800396857  0.307116490445649  47.236387413859724  4.056984221296098  1.2771073407184812  29.388304741321985  11.416674737550888  -4.563733547774069  22.54255192897269  120.000000
2.9120000000000026  0.000000  0.000000  0.000000  -37.390433213928375  1.517443562490358  0.40748350659135363  47.04870692656384  3.8536179624824407  1.0431710563636853  27.390017109432502  10.785172460766677  -2.2070255920143116  22.043402453771197  120.000000
2.9440000000000026  0.000000  0.000000  0.000000  -37.53659094213052  1.552096021508513  0.5280806749772284  46.91450797188143  3.653227614419881  0.8520448093086315  25.436616680324132  10.208547428385236  -0.03661127848116137  21.50167418851191  120.000000
2.9760000000000026  0.000000  0.000000  0.000000  -37.67376952161094  1.590116466196132  0.6600898442865795  46.84317226489045  3.4621727434549086  0.710884515052935  23.523455849088243  9.679622846863056  1.9533500497215792  20.93521537421177  120.000000
3.0080000000000027  0.000000  0.000000  0.000000  -37.80998549977705  1.62367502838036  0.7949823497097611  46.84120407130484  3.2870553872723316  0.6232222480714771  21.64871659592514  9.186854021923397  3.7791331522469527  20.36774574481389  120.000000
3.0400000000000027  0.000000  0.000000  0.000000  -37.95204465950843  1.6456271590573426  0.9229768602984643  46.90979319813651  3.1330615227117726  0.589056108450463  19.812459962108463  8.712694840023417  5.46672045622974  19.82764162403083  120.000000
